Coordinates
version=1
nRows=21
nColumns=12
inDegrees=yes

Units are S.I. units (second, meters, Newtons, ...)
Angles are in degrees

endheader
time	SC_y	SC_z	SC_x	AC_y	AC_z	AC_x	GH_y	GH_z	GH_yy	EL_x	PS_y
       0.0              -19.49          39.59          57.76          36.43           -3.1         -3.884          114.9          13.35          2.236          125.6          139.5
   0.02646              -19.49          39.58          57.76          36.43           -3.1         -3.882          114.9          13.35          2.255          125.6          139.5
   0.05293              -19.49          39.58          57.75          36.43         -3.099         -3.881          114.9          13.36          2.274          125.5          139.5
   0.07939              -19.49          39.57          57.75          36.43         -3.099          -3.88          114.8          13.36          2.295          125.5          139.5
    0.1059              -19.49          39.57          57.75          36.44         -3.098         -3.879          114.8          13.37          2.318          125.5          139.5
    0.1323              -19.49          39.56          57.75          36.44         -3.097         -3.878          114.7          13.38          2.341          125.5          139.5
    0.1588              -19.49          39.56          57.75          36.44         -3.096         -3.876          114.7          13.39          2.367          125.5          139.5
    0.1852              -19.49          39.55          57.75          36.45         -3.096         -3.875          114.6          13.39          2.394          125.4          139.5
    0.2117              -19.49          39.54          57.75          36.45         -3.095         -3.873          114.6           13.4          2.423          125.4          139.5
    0.2382              -19.49          39.54          57.74          36.46         -3.094         -3.871          114.5          13.41          2.454          125.4          139.5
    0.2646               -19.5          39.53          57.74          36.46         -3.093         -3.869          114.4          13.42          2.488          125.4          139.5
    0.2911               -19.5          39.52          57.74          36.47         -3.091         -3.867          114.4          13.43          2.524          125.4          139.5
    0.3176               -19.5          39.51          57.74          36.47          -3.09         -3.865          114.3          13.44          2.562          125.3          139.5
     0.344               -19.5           39.5          57.74          36.48         -3.089         -3.862          114.2          13.46          2.604          125.3          139.5
    0.3705               -19.5          39.49          57.73          36.49         -3.088          -3.86          114.1          13.47           2.65          125.3          139.5
     0.397               -19.5          39.48          57.73          36.49         -3.086         -3.857          114.0          13.48          2.699          125.2          139.5
    0.4234               -19.5          39.47          57.73           36.5         -3.084         -3.854          113.9           13.5          2.753          125.2          139.5
    0.4499               -19.5          39.46          57.72          36.51         -3.082         -3.851          113.8          13.52          2.811          125.1          139.5
    0.4763               -19.5          39.44          57.72          36.52         -3.081         -3.847          113.6          13.54          2.874          125.1          139.5
    0.5028               -19.5          39.43          57.72          36.53         -3.078         -3.843          113.5          13.56          2.944          125.0          139.5
    0.5293              -19.51          39.41          57.71          36.54         -3.076         -3.839          113.4          13.58          3.021          125.0          139.5
